<?xml version="1.0" encoding="UTF-8" standalone="no"?>
<!DOCTYPE svg PUBLIC "-//W3C//DTD SVG 1.1//EN" "http://www.w3.org/Graphics/SVG/1.1/DTD/svg11.dtd">
<svg width="30.75" height="42" viewBox="0 0 41 56" version="1.1" xmlns="http://www.w3.org/2000/svg" xmlns:xlink="http://www.w3.org/1999/xlink" xml:space="preserve" xmlns:serif="http://www.serif.com/" style="fill-rule:evenodd;clip-rule:evenodd;stroke-linejoin:round;stroke-miterlimit:2;">
    <g transform="matrix(1,0,0,1,-5450,-232)">
        <g transform="matrix(0.203055,0,0,0.203679,5384.42,181.093)">
            <g transform="matrix(0.446203,0,0,0.446203,223.487,208.782)">
                <path d="M223,138.73L223,307.386L341.893,379.391L369.27,341.107L263,276.747L263,160.404L223,138.73ZM671.27,138.73L671.27,307.386L552.377,379.391L525,341.107L631.27,276.747L631.27,160.404L671.27,138.73Z"/>
            </g>
            <g transform="matrix(0.446203,0,0,0.446203,233.334,208.782)">
                <path d="M384.135,113L344,92.23L344,198L384.135,218.77L384.135,113ZM466,113L506.135,92.23L506.135,198L466,218.77L466,113Z"/>
            </g>
            <g transform="matrix(0.446203,0,0,0.446203,234.256,208.782)">
                <path d="M310,399.195L198.865,399.195L198.865,445.195L310,445.195L310,399.195ZM536,399.195L647.135,399.195L647.135,445.195L536,445.195L536,399.195Z"/>
            </g>
            <g transform="matrix(0.446203,0,0,-0.446203,223.487,585.551)">
                <path d="M223,138.73L223,307.386L341.893,379.391L369.27,341.107L263,276.747L263,160.404L223,138.73ZM671.27,138.73L671.27,307.386L552.377,379.391L525,341.107L631.27,276.747L631.27,160.404L671.27,138.73Z"/>
            </g>
            <g transform="matrix(0.446203,0,0,0.446203,221.986,208.782)">
                <path d="M432,609L432,256L353.861,256C345.145,256 336.787,259.462 330.625,265.625C324.462,271.787 321,280.145 321,288.861L321,489C321,489 313,609 432,609ZM469,609L469,256L547.139,256C555.855,256 564.213,259.462 570.375,265.625C576.538,271.787 580,280.145 580,288.861L580,489C580,489 588,609 469,609Z"/>
            </g>
            <g transform="matrix(0.446203,0,0,0.446203,221.763,208.782)">
                <path d="M353.804,225C366.941,183.839 405.513,154 451,154C496.487,154 535.059,183.839 548.196,225L353.804,225Z"/>
            </g>
        </g>
    </g>
</svg>
