<?xml version="1.0" encoding="UTF-8" standalone="no"?>
<!DOCTYPE svg PUBLIC "-//W3C//DTD SVG 1.1//EN" "http://www.w3.org/Graphics/SVG/1.1/DTD/svg11.dtd">
<svg width="148.5" height="27.75" viewBox="0 0 198 37" version="1.1" xmlns="http://www.w3.org/2000/svg" xmlns:xlink="http://www.w3.org/1999/xlink" xml:space="preserve" xmlns:serif="http://www.serif.com/" style="fill-rule:evenodd;clip-rule:evenodd;stroke-linejoin:round;stroke-miterlimit:2;">
    <g transform="matrix(1,0,0,1,-5500,-333)">
        <g transform="matrix(1.40545,0,0,1.40545,4363.91,-1571.69)">
            <path d="M822.241,1360.21C822.241,1357.24 820.273,1355.22 817.369,1355.22L808.345,1355.22L808.345,1375.64L817.633,1375.64C820.489,1375.64 822.505,1373.65 822.505,1370.24L822.505,1368.97C822.505,1367.63 822.001,1366.28 820.825,1365.42L820.801,1365.42C821.689,1364.51 822.241,1363.16 822.241,1361.87L822.241,1360.21ZM811.873,1358.94L816.721,1358.94C817.801,1358.94 818.713,1359.97 818.713,1361.17L818.713,1361.48C818.713,1362.71 817.801,1363.71 816.721,1363.71L811.873,1363.71L811.873,1358.94ZM818.977,1369.62C818.977,1370.87 818.065,1371.88 816.961,1371.88L811.873,1371.88L811.873,1367.17L816.961,1367.17C818.065,1367.17 818.977,1368.18 818.977,1369.4L818.977,1369.62Z" style="fill:white;fill-rule:nonzero;"/>
            <path d="M823.993,1370.46C823.993,1373.46 826.225,1375.69 828.937,1375.69L836.713,1375.69L836.713,1372.33L829.729,1372.33C828.433,1372.33 827.521,1371.8 827.521,1370.36L827.521,1369.55L837.241,1369.55L837.241,1365.68C837.241,1363.28 835.441,1360.38 832.321,1360.38L828.913,1360.38C826.465,1360.38 823.993,1362.88 823.993,1365.8L823.993,1370.46ZM827.569,1366.55C827.569,1365.13 828.409,1363.86 829.681,1363.86L831.553,1363.86C832.873,1363.86 833.761,1365.04 833.761,1366.55L833.761,1366.71L827.569,1366.71L827.569,1366.55Z" style="fill:white;fill-rule:nonzero;"/>
            <path d="M842.569,1365.2C842.833,1364.24 843.361,1363.79 844.993,1363.79L845.737,1363.79C847.873,1363.79 848.161,1364.87 848.161,1366.31L848.161,1366.62L843.025,1366.62C840.457,1366.62 838.969,1368.52 838.969,1371.04C838.969,1373.53 840.409,1375.64 843.097,1375.64L851.617,1375.64L851.617,1365.59C851.617,1363 849.841,1360.38 846.265,1360.38L844.465,1360.38C840.985,1360.38 839.281,1362.66 839.113,1365.2L842.569,1365.2ZM842.185,1371.04C842.185,1370 842.713,1369.5 843.217,1369.5L848.161,1369.5L848.161,1372.55L843.217,1372.55C842.713,1372.55 842.185,1372.04 842.185,1371.04Z" style="fill:white;fill-rule:nonzero;"/>
            <path d="M853.249,1363.81L856.081,1363.81L856.081,1375.64L859.609,1375.64L859.609,1363.81L862.441,1363.81L862.441,1360.38L859.609,1360.38L859.609,1355.22L856.081,1355.22L856.081,1360.38L853.249,1360.38L853.249,1363.81Z" style="fill:white;fill-rule:nonzero;"/>
            <rect x="864.337" y="1355.22" width="3.528" height="20.424" style="fill:white;fill-rule:nonzero;"/>
            <path d="M870.361,1370.46C870.361,1373.46 872.593,1375.69 875.305,1375.69L883.081,1375.69L883.081,1372.33L876.097,1372.33C874.801,1372.33 873.889,1371.8 873.889,1370.36L873.889,1369.55L883.609,1369.55L883.609,1365.68C883.609,1363.28 881.809,1360.38 878.689,1360.38L875.281,1360.38C872.833,1360.38 870.361,1362.88 870.361,1365.8L870.361,1370.46ZM873.937,1366.55C873.937,1365.13 874.777,1363.86 876.049,1363.86L877.921,1363.86C879.241,1363.86 880.129,1365.04 880.129,1366.55L880.129,1366.71L873.937,1366.71L873.937,1366.55Z" style="fill:white;fill-rule:nonzero;"/>
            <path d="M896.377,1360.21L889.681,1360.21C886.993,1360.21 885.529,1362.37 885.529,1364.82C885.529,1367.1 886.345,1369.52 889.921,1369.52L892.609,1369.52C893.545,1369.52 894.505,1370 894.505,1371.13L894.505,1371.11C894.457,1372.16 893.521,1372.67 892.609,1372.67L886.369,1372.67L886.369,1375.64L893.617,1375.64C896.017,1375.64 897.841,1373.87 897.841,1371.23L897.841,1371.13C897.841,1368.49 896.425,1366.43 893.617,1366.43L890.281,1366.43C889.537,1366.43 888.985,1365.71 888.985,1364.94C888.985,1364.19 889.417,1363.33 890.425,1363.33L896.377,1363.33L896.377,1360.21Z" style="fill:white;fill-rule:nonzero;"/>
            <path d="M920.785,1360.38L917.449,1360.38L914.593,1370L911.665,1360.38L908.305,1360.38L905.449,1370.05L902.521,1360.38L899.185,1360.38L903.817,1375.64L907.177,1375.64L910.009,1366.02L912.937,1375.64L916.321,1375.64L920.785,1360.38Z" style="fill:white;fill-rule:nonzero;"/>
            <path d="M925.561,1365.2C925.825,1364.24 926.353,1363.79 927.985,1363.79L928.729,1363.79C930.865,1363.79 931.153,1364.87 931.153,1366.31L931.153,1366.62L926.017,1366.62C923.449,1366.62 921.961,1368.52 921.961,1371.04C921.961,1373.53 923.401,1375.64 926.089,1375.64L934.609,1375.64L934.609,1365.59C934.609,1363 932.833,1360.38 929.257,1360.38L927.457,1360.38C923.977,1360.38 922.273,1362.66 922.105,1365.2L925.561,1365.2ZM925.177,1371.04C925.177,1370 925.705,1369.5 926.209,1369.5L931.153,1369.5L931.153,1372.55L926.209,1372.55C925.705,1372.55 925.177,1372.04 925.177,1371.04Z" style="fill:white;fill-rule:nonzero;"/>
            <path d="M936.745,1360.38L936.745,1380.85L940.201,1380.85L940.201,1375.24C940.921,1375.5 941.737,1375.64 942.625,1375.64L943.585,1375.64C947.065,1375.64 949.225,1373.43 949.225,1370.05L949.225,1365.95C949.225,1362.56 947.065,1360.38 943.585,1360.38L936.745,1360.38ZM943.585,1363.81C944.857,1363.81 945.793,1364.75 945.793,1366.04L945.793,1369.95C945.793,1371.25 944.857,1372.19 943.585,1372.19L942.361,1372.19C941.089,1372.19 940.201,1371.25 940.201,1369.95L940.201,1363.81L943.585,1363.81Z" style="fill:white;fill-rule:nonzero;"/>
        </g>
    </g>
</svg>
